# xmcd CD database file
#
# Track frame offsets:
#	150
#	9798
#	24393
#	38626
#	54239
#	69819
#	79604
#	90636
#	100048
#	105526
#	114917
#	128256
#	141349
#	155389
#	169329
#
# Disc length: 2482 seconds
#
# Revision: 6
# Processed by: cddbd v1.5.1PL2 Copyright (c) Steve Scherf et al.
# Submitted via: CDex 1.51
#
DISCID=9f09b00f
DTITLE=鈴木よしひさ - 「ソロスタイル」で弾くジャズ・ギター
DYEAR=1900
DGENRE=Jazz
TTITLE0=All The Things You Are
TTITLE1=You'd Be So Nice To Come Home To
TTITLE2=Days Of Wine And Roses
TTITLE3=Alone Together
TTITLE4=There Is No Greater Love
TTITLE5=Fly Me To The Moon
TTITLE6=Nardis
TTITLE7=Walts For Debby
TTITLE8=Cherokee
TTITLE9=The Girl From Ipanema
TTITLE10=Autumn Leaves
TTITLE11=So What
TTITLE12=On Green Dolphin Street
TTITLE13=Night And Day
TTITLE14=Love Is Here To Stay
EXTD=
EXTT0=
EXTT1=
EXTT2=
EXTT3=
EXTT4=
EXTT5=
EXTT6=
EXTT7=
EXTT8=
EXTT9=
EXTT10=
EXTT11=
EXTT12=
EXTT13=
EXTT14=
PLAYORDER=
